<?xml version="1.0" encoding="UTF-8"?>
<svg width="1884px" height="1882px" viewBox="0 0 1884 1882" version="1.1" xmlns="http://www.w3.org/2000/svg" xmlns:xlink="http://www.w3.org/1999/xlink">
    <!-- Generator: Sketch 43.2 (39069) - http://www.bohemiancoding.com/sketch -->
    <title>Group 2</title>
    <desc>Created with Sketch.</desc>
    <defs></defs>
    <g id="Page-1" stroke="none" stroke-width="1" fill="none" fill-rule="evenodd" stroke-linecap="square" opacity="0.0690104167">
        <g id="Group-2" transform="translate(-18.000000, -19.000000)" stroke="#FFFDFD">
            <g id="Looper_Group">
                <g id="Group-Group">
                    <g id="duplicate_50_Group" transform="translate(960.000000, 960.000000) rotate(352.800000) translate(-960.000000, -960.000000) translate(446.270270, 155.675676)">
                        <path d="M15.5675676,5.18918919 L15.5675676,1593.08108" id="Line"></path>
                        <path d="M690.162162,1587.89189 L20.7567568,1587.89189" id="Line"></path>
                        <path d="M684.972973,1603.45946 L684.972973,934.054054" id="Line"></path>
                        <path d="M355.459459,1263.56757 L1024.86486,1263.56757" id="Line"></path>
                    </g>
                    <g id="duplicate_49_Group" transform="translate(960.000000, 960.000000) rotate(345.600000) translate(-960.000000, -960.000000) translate(446.270270, 155.675676)">
                        <path d="M15.5675676,5.18918919 L15.5675676,1593.08108" id="Line"></path>
                        <path d="M690.162162,1587.89189 L20.7567568,1587.89189" id="Line"></path>
                        <path d="M684.972973,1603.45946 L684.972973,934.054054" id="Line"></path>
                        <path d="M355.459459,1263.56757 L1024.86486,1263.56757" id="Line"></path>
                    </g>
                    <g id="duplicate_48_Group" transform="translate(960.000000, 960.000000) rotate(338.400000) translate(-960.000000, -960.000000) translate(446.270270, 155.675676)">
                        <path d="M15.5675676,5.18918919 L15.5675676,1593.08108" id="Line"></path>
                        <path d="M690.162162,1587.89189 L20.7567568,1587.89189" id="Line"></path>
                        <path d="M684.972973,1603.45946 L684.972973,934.054054" id="Line"></path>
                        <path d="M355.459459,1263.56757 L1024.86486,1263.56757" id="Line"></path>
                    </g>
                    <g id="duplicate_47_Group" transform="translate(960.000000, 960.000000) rotate(331.200000) translate(-960.000000, -960.000000) translate(446.270270, 155.675676)">
                        <path d="M15.5675676,5.18918919 L15.5675676,1593.08108" id="Line"></path>
                        <path d="M690.162162,1587.89189 L20.7567568,1587.89189" id="Line"></path>
                        <path d="M684.972973,1603.45946 L684.972973,934.054054" id="Line"></path>
                        <path d="M355.459459,1263.56757 L1024.86486,1263.56757" id="Line"></path>
                    </g>
                    <g id="duplicate_46_Group" transform="translate(960.000000, 960.000000) rotate(324.000000) translate(-960.000000, -960.000000) translate(446.270270, 155.675676)">
                        <path d="M15.5675676,5.18918919 L15.5675676,1593.08108" id="Line"></path>
                        <path d="M690.162162,1587.89189 L20.7567568,1587.89189" id="Line"></path>
                        <path d="M684.972973,1603.45946 L684.972973,934.054054" id="Line"></path>
                        <path d="M355.459459,1263.56757 L1024.86486,1263.56757" id="Line"></path>
                    </g>
                    <g id="duplicate_45_Group" transform="translate(960.000000, 960.000000) rotate(316.800000) translate(-960.000000, -960.000000) translate(446.270270, 155.675676)">
                        <path d="M15.5675676,5.18918919 L15.5675676,1593.08108" id="Line"></path>
                        <path d="M690.162162,1587.89189 L20.7567568,1587.89189" id="Line"></path>
                        <path d="M684.972973,1603.45946 L684.972973,934.054054" id="Line"></path>
                        <path d="M355.459459,1263.56757 L1024.86486,1263.56757" id="Line"></path>
                    </g>
                    <g id="duplicate_44_Group" transform="translate(960.000000, 960.000000) rotate(309.600000) translate(-960.000000, -960.000000) translate(446.270270, 155.675676)">
                        <path d="M15.5675676,5.18918919 L15.5675676,1593.08108" id="Line"></path>
                        <path d="M690.162162,1587.89189 L20.7567568,1587.89189" id="Line"></path>
                        <path d="M684.972973,1603.45946 L684.972973,934.054054" id="Line"></path>
                        <path d="M355.459459,1263.56757 L1024.86486,1263.56757" id="Line"></path>
                    </g>
                    <g id="duplicate_43_Group" transform="translate(960.000000, 960.000000) rotate(302.400000) translate(-960.000000, -960.000000) translate(446.270270, 155.675676)">
                        <path d="M15.5675676,5.18918919 L15.5675676,1593.08108" id="Line"></path>
                        <path d="M690.162162,1587.89189 L20.7567568,1587.89189" id="Line"></path>
                        <path d="M684.972973,1603.45946 L684.972973,934.054054" id="Line"></path>
                        <path d="M355.459459,1263.56757 L1024.86486,1263.56757" id="Line"></path>
                    </g>
                    <g id="duplicate_42_Group" transform="translate(960.000000, 960.000000) rotate(295.200000) translate(-960.000000, -960.000000) translate(446.270270, 155.675676)">
                        <path d="M15.5675676,5.18918919 L15.5675676,1593.08108" id="Line"></path>
                        <path d="M690.162162,1587.89189 L20.7567568,1587.89189" id="Line"></path>
                        <path d="M684.972973,1603.45946 L684.972973,934.054054" id="Line"></path>
                        <path d="M355.459459,1263.56757 L1024.86486,1263.56757" id="Line"></path>
                    </g>
                    <g id="duplicate_41_Group" transform="translate(960.000000, 960.000000) rotate(288.000000) translate(-960.000000, -960.000000) translate(446.270270, 155.675676)">
                        <path d="M15.5675676,5.18918919 L15.5675676,1593.08108" id="Line"></path>
                        <path d="M690.162162,1587.89189 L20.7567568,1587.89189" id="Line"></path>
                        <path d="M684.972973,1603.45946 L684.972973,934.054054" id="Line"></path>
                        <path d="M355.459459,1263.56757 L1024.86486,1263.56757" id="Line"></path>
                    </g>
                    <g id="duplicate_40_Group" transform="translate(960.000000, 960.000000) rotate(280.800000) translate(-960.000000, -960.000000) translate(446.270270, 155.675676)">
                        <path d="M15.5675676,5.18918919 L15.5675676,1593.08108" id="Line"></path>
                        <path d="M690.162162,1587.89189 L20.7567568,1587.89189" id="Line"></path>
                        <path d="M684.972973,1603.45946 L684.972973,934.054054" id="Line"></path>
                        <path d="M355.459459,1263.56757 L1024.86486,1263.56757" id="Line"></path>
                    </g>
                    <g id="duplicate_39_Group" transform="translate(960.000000, 960.000000) rotate(273.600000) translate(-960.000000, -960.000000) translate(446.270270, 155.675676)">
                        <path d="M15.5675676,5.18918919 L15.5675676,1593.08108" id="Line"></path>
                        <path d="M690.162162,1587.89189 L20.7567568,1587.89189" id="Line"></path>
                        <path d="M684.972973,1603.45946 L684.972973,934.054054" id="Line"></path>
                        <path d="M355.459459,1263.56757 L1024.86486,1263.56757" id="Line"></path>
                    </g>
                    <g id="duplicate_38_Group" transform="translate(960.000000, 960.000000) rotate(266.400000) translate(-960.000000, -960.000000) translate(446.270270, 155.675676)">
                        <path d="M15.5675676,5.18918919 L15.5675676,1593.08108" id="Line"></path>
                        <path d="M690.162162,1587.89189 L20.7567568,1587.89189" id="Line"></path>
                        <path d="M684.972973,1603.45946 L684.972973,934.054054" id="Line"></path>
                        <path d="M355.459459,1263.56757 L1024.86486,1263.56757" id="Line"></path>
                    </g>
                    <g id="duplicate_37_Group" transform="translate(960.000000, 960.000000) rotate(259.200000) translate(-960.000000, -960.000000) translate(446.270270, 155.675676)">
                        <path d="M15.5675676,5.18918919 L15.5675676,1593.08108" id="Line"></path>
                        <path d="M690.162162,1587.89189 L20.7567568,1587.89189" id="Line"></path>
                        <path d="M684.972973,1603.45946 L684.972973,934.054054" id="Line"></path>
                        <path d="M355.459459,1263.56757 L1024.86486,1263.56757" id="Line"></path>
                    </g>
                    <g id="duplicate_36_Group" transform="translate(960.000000, 960.000000) rotate(252.000000) translate(-960.000000, -960.000000) translate(446.270270, 155.675676)">
                        <path d="M15.5675676,5.18918919 L15.5675676,1593.08108" id="Line"></path>
                        <path d="M690.162162,1587.89189 L20.7567568,1587.89189" id="Line"></path>
                        <path d="M684.972973,1603.45946 L684.972973,934.054054" id="Line"></path>
                        <path d="M355.459459,1263.56757 L1024.86486,1263.56757" id="Line"></path>
                    </g>
                    <g id="duplicate_35_Group" transform="translate(960.000000, 960.000000) rotate(244.800000) translate(-960.000000, -960.000000) translate(446.270270, 155.675676)">
                        <path d="M15.5675676,5.18918919 L15.5675676,1593.08108" id="Line"></path>
                        <path d="M690.162162,1587.89189 L20.7567568,1587.89189" id="Line"></path>
                        <path d="M684.972973,1603.45946 L684.972973,934.054054" id="Line"></path>
                        <path d="M355.459459,1263.56757 L1024.86486,1263.56757" id="Line"></path>
                    </g>
                    <g id="duplicate_34_Group" transform="translate(960.000000, 960.000000) rotate(237.600000) translate(-960.000000, -960.000000) translate(446.270270, 155.675676)">
                        <path d="M15.5675676,5.18918919 L15.5675676,1593.08108" id="Line"></path>
                        <path d="M690.162162,1587.89189 L20.7567568,1587.89189" id="Line"></path>
                        <path d="M684.972973,1603.45946 L684.972973,934.054054" id="Line"></path>
                        <path d="M355.459459,1263.56757 L1024.86486,1263.56757" id="Line"></path>
                    </g>
                    <g id="duplicate_33_Group" transform="translate(960.000000, 960.000000) rotate(230.400000) translate(-960.000000, -960.000000) translate(446.270270, 155.675676)">
                        <path d="M15.5675676,5.18918919 L15.5675676,1593.08108" id="Line"></path>
                        <path d="M690.162162,1587.89189 L20.7567568,1587.89189" id="Line"></path>
                        <path d="M684.972973,1603.45946 L684.972973,934.054054" id="Line"></path>
                        <path d="M355.459459,1263.56757 L1024.86486,1263.56757" id="Line"></path>
                    </g>
                    <g id="duplicate_32_Group" transform="translate(960.000000, 960.000000) rotate(223.200000) translate(-960.000000, -960.000000) translate(446.270270, 155.675676)">
                        <path d="M15.5675676,5.18918919 L15.5675676,1593.08108" id="Line"></path>
                        <path d="M690.162162,1587.89189 L20.7567568,1587.89189" id="Line"></path>
                        <path d="M684.972973,1603.45946 L684.972973,934.054054" id="Line"></path>
                        <path d="M355.459459,1263.56757 L1024.86486,1263.56757" id="Line"></path>
                    </g>
                    <g id="duplicate_31_Group" transform="translate(960.000000, 960.000000) rotate(216.000000) translate(-960.000000, -960.000000) translate(446.270270, 155.675676)">
                        <path d="M15.5675676,5.18918919 L15.5675676,1593.08108" id="Line"></path>
                        <path d="M690.162162,1587.89189 L20.7567568,1587.89189" id="Line"></path>
                        <path d="M684.972973,1603.45946 L684.972973,934.054054" id="Line"></path>
                        <path d="M355.459459,1263.56757 L1024.86486,1263.56757" id="Line"></path>
                    </g>
                    <g id="duplicate_30_Group" transform="translate(960.000000, 960.000000) rotate(208.800000) translate(-960.000000, -960.000000) translate(446.270270, 155.675676)">
                        <path d="M15.5675676,5.18918919 L15.5675676,1593.08108" id="Line"></path>
                        <path d="M690.162162,1587.89189 L20.7567568,1587.89189" id="Line"></path>
                        <path d="M684.972973,1603.45946 L684.972973,934.054054" id="Line"></path>
                        <path d="M355.459459,1263.56757 L1024.86486,1263.56757" id="Line"></path>
                    </g>
                    <g id="duplicate_29_Group" transform="translate(960.000000, 960.000000) rotate(201.600000) translate(-960.000000, -960.000000) translate(446.270270, 155.675676)">
                        <path d="M15.5675676,5.18918919 L15.5675676,1593.08108" id="Line"></path>
                        <path d="M690.162162,1587.89189 L20.7567568,1587.89189" id="Line"></path>
                        <path d="M684.972973,1603.45946 L684.972973,934.054054" id="Line"></path>
                        <path d="M355.459459,1263.56757 L1024.86486,1263.56757" id="Line"></path>
                    </g>
                    <g id="duplicate_28_Group" transform="translate(960.000000, 960.000000) rotate(194.400000) translate(-960.000000, -960.000000) translate(446.270270, 155.675676)">
                        <path d="M15.5675676,5.18918919 L15.5675676,1593.08108" id="Line"></path>
                        <path d="M690.162162,1587.89189 L20.7567568,1587.89189" id="Line"></path>
                        <path d="M684.972973,1603.45946 L684.972973,934.054054" id="Line"></path>
                        <path d="M355.459459,1263.56757 L1024.86486,1263.56757" id="Line"></path>
                    </g>
                    <g id="duplicate_27_Group" transform="translate(960.000000, 960.000000) rotate(187.200000) translate(-960.000000, -960.000000) translate(446.270270, 155.675676)">
                        <path d="M15.5675676,5.18918919 L15.5675676,1593.08108" id="Line"></path>
                        <path d="M690.162162,1587.89189 L20.7567568,1587.89189" id="Line"></path>
                        <path d="M684.972973,1603.45946 L684.972973,934.054054" id="Line"></path>
                        <path d="M355.459459,1263.56757 L1024.86486,1263.56757" id="Line"></path>
                    </g>
                    <g id="duplicate_26_Group" transform="translate(960.000000, 960.000000) rotate(180.000000) translate(-960.000000, -960.000000) translate(446.270270, 155.675676)">
                        <path d="M15.5675676,5.18918919 L15.5675676,1593.08108" id="Line"></path>
                        <path d="M690.162162,1587.89189 L20.7567568,1587.89189" id="Line"></path>
                        <path d="M684.972973,1603.45946 L684.972973,934.054054" id="Line"></path>
                        <path d="M355.459459,1263.56757 L1024.86486,1263.56757" id="Line"></path>
                    </g>
                    <g id="duplicate_25_Group" transform="translate(960.000000, 960.000000) rotate(172.800000) translate(-960.000000, -960.000000) translate(446.270270, 155.675676)">
                        <path d="M15.5675676,5.18918919 L15.5675676,1593.08108" id="Line"></path>
                        <path d="M690.162162,1587.89189 L20.7567568,1587.89189" id="Line"></path>
                        <path d="M684.972973,1603.45946 L684.972973,934.054054" id="Line"></path>
                        <path d="M355.459459,1263.56757 L1024.86486,1263.56757" id="Line"></path>
                    </g>
                    <g id="duplicate_24_Group" transform="translate(960.000000, 960.000000) rotate(165.600000) translate(-960.000000, -960.000000) translate(446.270270, 155.675676)">
                        <path d="M15.5675676,5.18918919 L15.5675676,1593.08108" id="Line"></path>
                        <path d="M690.162162,1587.89189 L20.7567568,1587.89189" id="Line"></path>
                        <path d="M684.972973,1603.45946 L684.972973,934.054054" id="Line"></path>
                        <path d="M355.459459,1263.56757 L1024.86486,1263.56757" id="Line"></path>
                    </g>
                    <g id="duplicate_23_Group" transform="translate(960.000000, 960.000000) rotate(158.400000) translate(-960.000000, -960.000000) translate(446.270270, 155.675676)">
                        <path d="M15.5675676,5.18918919 L15.5675676,1593.08108" id="Line"></path>
                        <path d="M690.162162,1587.89189 L20.7567568,1587.89189" id="Line"></path>
                        <path d="M684.972973,1603.45946 L684.972973,934.054054" id="Line"></path>
                        <path d="M355.459459,1263.56757 L1024.86486,1263.56757" id="Line"></path>
                    </g>
                    <g id="duplicate_22_Group" transform="translate(960.000000, 960.000000) rotate(151.200000) translate(-960.000000, -960.000000) translate(446.270270, 155.675676)">
                        <path d="M15.5675676,5.18918919 L15.5675676,1593.08108" id="Line"></path>
                        <path d="M690.162162,1587.89189 L20.7567568,1587.89189" id="Line"></path>
                        <path d="M684.972973,1603.45946 L684.972973,934.054054" id="Line"></path>
                        <path d="M355.459459,1263.56757 L1024.86486,1263.56757" id="Line"></path>
                    </g>
                    <g id="duplicate_21_Group" transform="translate(960.000000, 960.000000) rotate(144.000000) translate(-960.000000, -960.000000) translate(446.270270, 155.675676)">
                        <path d="M15.5675676,5.18918919 L15.5675676,1593.08108" id="Line"></path>
                        <path d="M690.162162,1587.89189 L20.7567568,1587.89189" id="Line"></path>
                        <path d="M684.972973,1603.45946 L684.972973,934.054054" id="Line"></path>
                        <path d="M355.459459,1263.56757 L1024.86486,1263.56757" id="Line"></path>
                    </g>
                    <g id="duplicate_20_Group" transform="translate(960.000000, 960.000000) rotate(136.800000) translate(-960.000000, -960.000000) translate(446.270270, 155.675676)">
                        <path d="M15.5675676,5.18918919 L15.5675676,1593.08108" id="Line"></path>
                        <path d="M690.162162,1587.89189 L20.7567568,1587.89189" id="Line"></path>
                        <path d="M684.972973,1603.45946 L684.972973,934.054054" id="Line"></path>
                        <path d="M355.459459,1263.56757 L1024.86486,1263.56757" id="Line"></path>
                    </g>
                    <g id="duplicate_19_Group" transform="translate(960.000000, 960.000000) rotate(129.600000) translate(-960.000000, -960.000000) translate(446.270270, 155.675676)">
                        <path d="M15.5675676,5.18918919 L15.5675676,1593.08108" id="Line"></path>
                        <path d="M690.162162,1587.89189 L20.7567568,1587.89189" id="Line"></path>
                        <path d="M684.972973,1603.45946 L684.972973,934.054054" id="Line"></path>
                        <path d="M355.459459,1263.56757 L1024.86486,1263.56757" id="Line"></path>
                    </g>
                    <g id="duplicate_18_Group" transform="translate(960.000000, 960.000000) rotate(122.400000) translate(-960.000000, -960.000000) translate(446.270270, 155.675676)">
                        <path d="M15.5675676,5.18918919 L15.5675676,1593.08108" id="Line"></path>
                        <path d="M690.162162,1587.89189 L20.7567568,1587.89189" id="Line"></path>
                        <path d="M684.972973,1603.45946 L684.972973,934.054054" id="Line"></path>
                        <path d="M355.459459,1263.56757 L1024.86486,1263.56757" id="Line"></path>
                    </g>
                    <g id="duplicate_17_Group" transform="translate(960.000000, 960.000000) rotate(115.200000) translate(-960.000000, -960.000000) translate(446.270270, 155.675676)">
                        <path d="M15.5675676,5.18918919 L15.5675676,1593.08108" id="Line"></path>
                        <path d="M690.162162,1587.89189 L20.7567568,1587.89189" id="Line"></path>
                        <path d="M684.972973,1603.45946 L684.972973,934.054054" id="Line"></path>
                        <path d="M355.459459,1263.56757 L1024.86486,1263.56757" id="Line"></path>
                    </g>
                    <g id="duplicate_16_Group" transform="translate(960.000000, 960.000000) rotate(108.000000) translate(-960.000000, -960.000000) translate(446.270270, 155.675676)">
                        <path d="M15.5675676,5.18918919 L15.5675676,1593.08108" id="Line"></path>
                        <path d="M690.162162,1587.89189 L20.7567568,1587.89189" id="Line"></path>
                        <path d="M684.972973,1603.45946 L684.972973,934.054054" id="Line"></path>
                        <path d="M355.459459,1263.56757 L1024.86486,1263.56757" id="Line"></path>
                    </g>
                    <g id="duplicate_15_Group" transform="translate(960.000000, 960.000000) rotate(100.800000) translate(-960.000000, -960.000000) translate(446.270270, 155.675676)">
                        <path d="M15.5675676,5.18918919 L15.5675676,1593.08108" id="Line"></path>
                        <path d="M690.162162,1587.89189 L20.7567568,1587.89189" id="Line"></path>
                        <path d="M684.972973,1603.45946 L684.972973,934.054054" id="Line"></path>
                        <path d="M355.459459,1263.56757 L1024.86486,1263.56757" id="Line"></path>
                    </g>
                    <g id="duplicate_14_Group" transform="translate(960.000000, 960.000000) rotate(93.600000) translate(-960.000000, -960.000000) translate(446.270270, 155.675676)">
                        <path d="M15.5675676,5.18918919 L15.5675676,1593.08108" id="Line"></path>
                        <path d="M690.162162,1587.89189 L20.7567568,1587.89189" id="Line"></path>
                        <path d="M684.972973,1603.45946 L684.972973,934.054054" id="Line"></path>
                        <path d="M355.459459,1263.56757 L1024.86486,1263.56757" id="Line"></path>
                    </g>
                    <g id="duplicate_13_Group" transform="translate(960.000000, 960.000000) rotate(86.400000) translate(-960.000000, -960.000000) translate(446.270270, 155.675676)">
                        <path d="M15.5675676,5.18918919 L15.5675676,1593.08108" id="Line"></path>
                        <path d="M690.162162,1587.89189 L20.7567568,1587.89189" id="Line"></path>
                        <path d="M684.972973,1603.45946 L684.972973,934.054054" id="Line"></path>
                        <path d="M355.459459,1263.56757 L1024.86486,1263.56757" id="Line"></path>
                    </g>
                    <g id="duplicate_12_Group" transform="translate(960.000000, 960.000000) rotate(79.200000) translate(-960.000000, -960.000000) translate(446.270270, 155.675676)">
                        <path d="M15.5675676,5.18918919 L15.5675676,1593.08108" id="Line"></path>
                        <path d="M690.162162,1587.89189 L20.7567568,1587.89189" id="Line"></path>
                        <path d="M684.972973,1603.45946 L684.972973,934.054054" id="Line"></path>
                        <path d="M355.459459,1263.56757 L1024.86486,1263.56757" id="Line"></path>
                    </g>
                    <g id="duplicate_11_Group" transform="translate(960.000000, 960.000000) rotate(72.000000) translate(-960.000000, -960.000000) translate(446.270270, 155.675676)">
                        <path d="M15.5675676,5.18918919 L15.5675676,1593.08108" id="Line"></path>
                        <path d="M690.162162,1587.89189 L20.7567568,1587.89189" id="Line"></path>
                        <path d="M684.972973,1603.45946 L684.972973,934.054054" id="Line"></path>
                        <path d="M355.459459,1263.56757 L1024.86486,1263.56757" id="Line"></path>
                    </g>
                    <g id="duplicate_10_Group" transform="translate(960.000000, 960.000000) rotate(64.800000) translate(-960.000000, -960.000000) translate(446.270270, 155.675676)">
                        <path d="M15.5675676,5.18918919 L15.5675676,1593.08108" id="Line"></path>
                        <path d="M690.162162,1587.89189 L20.7567568,1587.89189" id="Line"></path>
                        <path d="M684.972973,1603.45946 L684.972973,934.054054" id="Line"></path>
                        <path d="M355.459459,1263.56757 L1024.86486,1263.56757" id="Line"></path>
                    </g>
                    <g id="duplicate_9_Group" transform="translate(960.000000, 960.000000) rotate(57.600000) translate(-960.000000, -960.000000) translate(446.270270, 155.675676)">
                        <path d="M15.5675676,5.18918919 L15.5675676,1593.08108" id="Line"></path>
                        <path d="M690.162162,1587.89189 L20.7567568,1587.89189" id="Line"></path>
                        <path d="M684.972973,1603.45946 L684.972973,934.054054" id="Line"></path>
                        <path d="M355.459459,1263.56757 L1024.86486,1263.56757" id="Line"></path>
                    </g>
                    <g id="duplicate_8_Group" transform="translate(960.000000, 960.000000) rotate(50.400000) translate(-960.000000, -960.000000) translate(446.270270, 155.675676)">
                        <path d="M15.5675676,5.18918919 L15.5675676,1593.08108" id="Line"></path>
                        <path d="M690.162162,1587.89189 L20.7567568,1587.89189" id="Line"></path>
                        <path d="M684.972973,1603.45946 L684.972973,934.054054" id="Line"></path>
                        <path d="M355.459459,1263.56757 L1024.86486,1263.56757" id="Line"></path>
                    </g>
                    <g id="duplicate_7_Group" transform="translate(960.000000, 960.000000) rotate(43.200000) translate(-960.000000, -960.000000) translate(446.270270, 155.675676)">
                        <path d="M15.5675676,5.18918919 L15.5675676,1593.08108" id="Line"></path>
                        <path d="M690.162162,1587.89189 L20.7567568,1587.89189" id="Line"></path>
                        <path d="M684.972973,1603.45946 L684.972973,934.054054" id="Line"></path>
                        <path d="M355.459459,1263.56757 L1024.86486,1263.56757" id="Line"></path>
                    </g>
                    <g id="duplicate_6_Group" transform="translate(960.000000, 960.000000) rotate(36.000000) translate(-960.000000, -960.000000) translate(446.270270, 155.675676)">
                        <path d="M15.5675676,5.18918919 L15.5675676,1593.08108" id="Line"></path>
                        <path d="M690.162162,1587.89189 L20.7567568,1587.89189" id="Line"></path>
                        <path d="M684.972973,1603.45946 L684.972973,934.054054" id="Line"></path>
                        <path d="M355.459459,1263.56757 L1024.86486,1263.56757" id="Line"></path>
                    </g>
                    <g id="duplicate_5_Group" transform="translate(960.000000, 960.000000) rotate(28.800000) translate(-960.000000, -960.000000) translate(446.270270, 155.675676)">
                        <path d="M15.5675676,5.18918919 L15.5675676,1593.08108" id="Line"></path>
                        <path d="M690.162162,1587.89189 L20.7567568,1587.89189" id="Line"></path>
                        <path d="M684.972973,1603.45946 L684.972973,934.054054" id="Line"></path>
                        <path d="M355.459459,1263.56757 L1024.86486,1263.56757" id="Line"></path>
                    </g>
                    <g id="duplicate_4_Group" transform="translate(960.000000, 960.000000) rotate(21.600000) translate(-960.000000, -960.000000) translate(446.270270, 155.675676)">
                        <path d="M15.5675676,5.18918919 L15.5675676,1593.08108" id="Line"></path>
                        <path d="M690.162162,1587.89189 L20.7567568,1587.89189" id="Line"></path>
                        <path d="M684.972973,1603.45946 L684.972973,934.054054" id="Line"></path>
                        <path d="M355.459459,1263.56757 L1024.86486,1263.56757" id="Line"></path>
                    </g>
                    <g id="duplicate_3_Group" transform="translate(960.000000, 960.000000) rotate(14.400000) translate(-960.000000, -960.000000) translate(446.270270, 155.675676)">
                        <path d="M15.5675676,5.18918919 L15.5675676,1593.08108" id="Line"></path>
                        <path d="M690.162162,1587.89189 L20.7567568,1587.89189" id="Line"></path>
                        <path d="M684.972973,1603.45946 L684.972973,934.054054" id="Line"></path>
                        <path d="M355.459459,1263.56757 L1024.86486,1263.56757" id="Line"></path>
                    </g>
                    <g id="duplicate_2_Group" transform="translate(960.000000, 960.000000) rotate(7.200000) translate(-960.000000, -960.000000) translate(446.270270, 155.675676)">
                        <path d="M15.5675676,5.18918919 L15.5675676,1593.08108" id="Line"></path>
                        <path d="M690.162162,1587.89189 L20.7567568,1587.89189" id="Line"></path>
                        <path d="M684.972973,1603.45946 L684.972973,934.054054" id="Line"></path>
                        <path d="M355.459459,1263.56757 L1024.86486,1263.56757" id="Line"></path>
                    </g>
                    <g id="duplicate_1_Group" transform="translate(446.270270, 155.675676)">
                        <path d="M15.5675676,5.18918919 L15.5675676,1593.08108" id="Line"></path>
                        <path d="M690.162162,1587.89189 L20.7567568,1587.89189" id="Line"></path>
                        <path d="M684.972973,1603.45946 L684.972973,934.054054" id="Line"></path>
                        <path d="M355.459459,1263.56757 L1024.86486,1263.56757" id="Line"></path>
                    </g>
                </g>
            </g>
        </g>
    </g>
</svg>