<?xml version="1.0" encoding="UTF-8"?>
<svg width="1920px" height="1917px" viewBox="0 0 1920 1917" version="1.1" xmlns="http://www.w3.org/2000/svg" xmlns:xlink="http://www.w3.org/1999/xlink">
    <!-- Generator: Sketch 43.2 (39069) - http://www.bohemiancoding.com/sketch -->
    <title>Group</title>
    <desc>Created with Sketch.</desc>
    <defs></defs>
    <g id="Page-1" stroke="none" stroke-width="1" fill="none" fill-rule="evenodd" opacity="0.0497622283">
        <g id="Group" stroke="#FFFFFF">
            <path d="M118.045323,1318.42543 L1893.54867,1318.42543" id="Line" transform="translate(1005.796998, 1319.003745) rotate(-7.200000) translate(-1005.796998, -1319.003745) "></path>
            <path d="M366.202111,299.308598 L1554.24574,1618.76473" id="Line" transform="translate(960.223928, 959.036663) rotate(-7.200000) translate(-960.223928, -959.036663) "></path>
            <path d="M1619.95198,365.014846 L300.495864,1553.05848" id="Line" transform="translate(960.223924, 959.036661) rotate(-7.200000) translate(-960.223924, -959.036661) "></path>
            <path d="M162.824264,1309.84557 L1938.32761,1309.84557" id="Line" transform="translate(1050.575939, 1310.423888) rotate(-14.400000) translate(-1050.575939, -1310.423888) "></path>
            <path d="M366.224571,299.279009 L1554.2682,1618.73514" id="Line" transform="translate(960.246388, 959.007074) rotate(-14.400000) translate(-960.246388, -959.007074) "></path>
            <path d="M1619.97444,364.985256 L300.518323,1553.02889" id="Line" transform="translate(960.246384, 959.007072) rotate(-14.400000) translate(-960.246384, -959.007072) "></path>
            <path d="M206.174768,1295.72108 L1981.67812,1295.72108" id="Line" transform="translate(1093.926443, 1296.299395) rotate(-21.600000) translate(-1093.926443, -1296.299395) "></path>
            <path d="M366.243145,299.246837 L1554.28678,1618.70297" id="Line" transform="translate(960.264962, 958.974902) rotate(-21.600000) translate(-960.264962, -958.974902) "></path>
            <path d="M1619.99302,364.953086 L300.536897,1552.99672" id="Line" transform="translate(960.264958, 958.974901) rotate(-21.600000) translate(-960.264958, -958.974901) "></path>
            <path d="M247.413173,1276.27471 L2022.91652,1276.27471" id="Line" transform="translate(1135.164847, 1276.853019) rotate(-28.800000) translate(-1135.164847, -1276.853019) "></path>
            <path d="M366.257541,299.212592 L1554.30117,1618.66872" id="Line" transform="translate(960.279358, 958.940657) rotate(-28.800000) translate(-960.279358, -958.940657) "></path>
            <path d="M1620.00741,364.91884 L300.551293,1552.96247" id="Line" transform="translate(960.279353, 958.940656) rotate(-28.800000) translate(-960.279353, -958.940656) "></path>
            <path d="M285.889123,1251.81313 L2061.39247,1251.81313" id="Line" transform="translate(1173.640797, 1252.391442) rotate(-36.000000) translate(-1173.640797, -1252.391442) "></path>
            <path d="M366.267531,299.176812 L1554.31116,1618.63294" id="Line" transform="translate(960.289347, 958.904877) rotate(-36.000000) translate(-960.289347, -958.904877) "></path>
            <path d="M1620.0174,364.883061 L300.561283,1552.92669" id="Line" transform="translate(960.289343, 958.904877) rotate(-36.000000) translate(-960.289343, -958.904877) "></path>
            <path d="M320.99583,1222.72212 L2096.49918,1222.72212" id="Line" transform="translate(1208.747504, 1223.300435) rotate(-43.200000) translate(-1208.747504, -1223.300435) "></path>
            <path d="M366.272957,299.140062 L1554.31659,1618.59619" id="Line" transform="translate(960.294774, 958.868127) rotate(-43.200000) translate(-960.294774, -958.868127) "></path>
            <path d="M1620.02283,364.846312 L300.56671,1552.88994" id="Line" transform="translate(960.294770, 958.868128) rotate(-43.200000) translate(-960.294770, -958.868128) "></path>
            <path d="M352.17964,1189.46047 L2127.68299,1189.46047" id="Line" transform="translate(1239.931315, 1190.038783) rotate(-50.400000) translate(-1239.931315, -1190.038783) "></path>
            <path d="M366.273735,299.102922 L1554.31737,1618.55905" id="Line" transform="translate(960.295552, 958.830987) rotate(-50.400000) translate(-960.295552, -958.830987) "></path>
            <path d="M1620.02361,364.809172 L300.567488,1552.8528" id="Line" transform="translate(960.295548, 958.830988) rotate(-50.400000) translate(-960.295548, -958.830988) "></path>
            <path d="M378.948766,1152.55273 L2154.45212,1152.55273" id="Line" transform="translate(1266.700441, 1153.131042) rotate(-57.600000) translate(-1266.700441, -1153.131042) "></path>
            <path d="M366.269852,299.065977 L1554.31349,1618.52211" id="Line" transform="translate(960.291669, 958.794042) rotate(-57.600000) translate(-960.291669, -958.794042) "></path>
            <path d="M1620.01973,364.772228 L300.563605,1552.81586" id="Line" transform="translate(960.291665, 958.794043) rotate(-57.600000) translate(-960.291665, -958.794043) "></path>
            <path d="M400.881043,1112.58095 L2176.38439,1112.58095" id="Line" transform="translate(1288.632718, 1113.159267) rotate(-64.800000) translate(-1288.632718, -1113.159267) "></path>
            <path d="M366.26137,299.02981 L1554.305,1618.48594" id="Line" transform="translate(960.283187, 958.757875) rotate(-64.800000) translate(-960.283187, -958.757875) "></path>
            <path d="M1620.01124,364.736061 L300.555123,1552.77969" id="Line" transform="translate(960.283183, 958.757877) rotate(-64.800000) translate(-960.283183, -958.757877) "></path>
            <path d="M417.630586,1070.17553 L2193.13394,1070.17553" id="Line" transform="translate(1305.382261, 1070.753839) rotate(-72.000000) translate(-1305.382261, -1070.753839) "></path>
            <path d="M366.248421,298.994991 L1554.29205,1618.45112" id="Line" transform="translate(960.270238, 958.723056) rotate(-72.000000) translate(-960.270238, -958.723056) "></path>
            <path d="M1619.99829,364.701243 L300.542174,1552.74487" id="Line" transform="translate(960.270234, 958.723059) rotate(-72.000000) translate(-960.270234, -958.723059) "></path>
            <path d="M428.933244,1026.0052 L2204.43659,1026.0052" id="Line" transform="translate(1316.684919, 1026.583516) rotate(-79.200000) translate(-1316.684919, -1026.583516) "></path>
            <path d="M366.23121,298.96207 L1554.27484,1618.4182" id="Line" transform="translate(960.253027, 958.690135) rotate(-79.200000) translate(-960.253027, -958.690135) "></path>
            <path d="M1619.98108,364.668323 L300.524964,1552.71195" id="Line" transform="translate(960.253024, 958.690138) rotate(-79.200000) translate(-960.253024, -958.690138) "></path>
            <path d="M434.610768,980.766577 L2210.11412,980.766577" id="Line" transform="translate(1322.362443, 981.344891) rotate(-86.400000) translate(-1322.362443, -981.344891) "></path>
            <path d="M366.210009,298.931566 L1554.25364,1618.3877" id="Line" transform="translate(960.231826, 958.659631) rotate(-86.400000) translate(-960.231826, -958.659631) "></path>
            <path d="M1619.95988,364.637819 L300.503763,1552.68145" id="Line" transform="translate(960.231823, 958.659634) rotate(-86.400000) translate(-960.231823, -958.659634) "></path>
            <path d="M434.57362,935.173089 L2210.07697,935.173089" id="Line" transform="translate(1322.325295, 935.751403) rotate(-93.600000) translate(-1322.325295, -935.751403) "></path>
            <path d="M366.185152,298.903959 L1554.22879,1618.36009" id="Line" transform="translate(960.206969, 958.632024) rotate(-93.600000) translate(-960.206969, -958.632024) "></path>
            <path d="M1619.93503,364.610212 L300.478907,1552.65384" id="Line" transform="translate(960.206967, 958.632028) rotate(-93.600000) translate(-960.206967, -958.632028) "></path>
            <path d="M428.822386,889.943776 L2204.32574,889.943776" id="Line" transform="translate(1316.574061, 890.522089) rotate(-100.800000) translate(-1316.574061, -890.522089) "></path>
            <path d="M366.157031,298.879686 L1554.20066,1618.33582" id="Line" transform="translate(960.178848, 958.607751) rotate(-100.800000) translate(-960.178848, -958.607751) "></path>
            <path d="M1619.90691,364.585939 L300.450786,1552.62957" id="Line" transform="translate(960.178846, 958.607755) rotate(-100.800000) translate(-960.178846, -958.607755) "></path>
            <path d="M417.447765,845.791929 L2192.95111,845.791929" id="Line" transform="translate(1305.199440, 846.370243) rotate(-108.000000) translate(-1305.199440, -846.370243) "></path>
            <path d="M366.126089,298.859128 L1554.16972,1618.31526" id="Line" transform="translate(960.147906, 958.587193) rotate(-108.000000) translate(-960.147906, -958.587193) "></path>
            <path d="M1619.87597,364.565381 L300.419845,1552.60901" id="Line" transform="translate(960.147905, 958.587197) rotate(-108.000000) translate(-960.147905, -958.587197) "></path>
            <path d="M400.629143,803.413852 L2176.13249,803.413852" id="Line" transform="translate(1288.380818, 803.992165) rotate(-115.200000) translate(-1288.380818, -803.992165) "></path>
            <path d="M366.092815,298.842611 L1554.13645,1618.29874" id="Line" transform="translate(960.114632, 958.570676) rotate(-115.200000) translate(-960.114632, -958.570676) "></path>
            <path d="M1619.84269,364.548864 L300.386571,1552.5925" id="Line" transform="translate(960.114631, 958.570680) rotate(-115.200000) translate(-960.114631, -958.570680) "></path>
            <path d="M378.63176,763.47787 L2154.13511,763.47787" id="Line" transform="translate(1266.383435, 764.056183) rotate(-122.400000) translate(-1266.383435, -764.056183) "></path>
            <path d="M366.057733,298.830394 L1554.10137,1618.28652" id="Line" transform="translate(960.079550, 958.558459) rotate(-122.400000) translate(-960.079550, -958.558459) "></path>
            <path d="M1619.80761,364.536647 L300.35149,1552.58028" id="Line" transform="translate(960.079550, 958.558463) rotate(-122.400000) translate(-960.079550, -958.558463) "></path>
            <path d="M351.802527,726.613798 L2127.30588,726.613798" id="Line" transform="translate(1239.554201, 727.192112) rotate(-129.600000) translate(-1239.554201, -727.192112) "></path>
            <path d="M366.021397,298.82267 L1554.06503,1618.2788" id="Line" transform="translate(960.043214, 958.550735) rotate(-129.600000) translate(-960.043214, -958.550735) "></path>
            <path d="M1619.77127,364.528924 L300.315154,1552.57256" id="Line" transform="translate(960.043214, 958.550739) rotate(-129.600000) translate(-960.043214, -958.550739) "></path>
            <path d="M320.564556,693.403006 L2096.06791,693.403006" id="Line" transform="translate(1208.316231, 693.981319) rotate(-136.800000) translate(-1208.316231, -693.981319) "></path>
            <path d="M365.984379,298.819562 L1554.02801,1618.27569" id="Line" transform="translate(960.006195, 958.547627) rotate(-136.800000) translate(-960.006195, -958.547627) "></path>
            <path d="M1619.73426,364.525815 L300.278136,1552.56945" id="Line" transform="translate(960.006196, 958.547631) rotate(-136.800000) translate(-960.006196, -958.547631) "></path>
            <path d="M285.410491,664.369246 L2060.91384,664.369246" id="Line" transform="translate(1173.162166, 664.947559) rotate(-144.000000) translate(-1173.162166, -664.947559) "></path>
            <path d="M365.947263,298.821117 L1553.9909,1618.27725" id="Line" transform="translate(959.969080, 958.549182) rotate(-144.000000) translate(-959.969080, -958.549182) "></path>
            <path d="M1619.69714,364.52737 L300.241021,1552.571" id="Line" transform="translate(959.969081, 958.549186) rotate(-144.000000) translate(-959.969081, -958.549186) "></path>
            <path d="M246.894731,639.970399 L2022.39808,639.970399" id="Line" transform="translate(1134.646406, 640.548712) rotate(-151.200000) translate(-1134.646406, -640.548712) "></path>
            <path d="M365.910635,298.827312 L1553.95427,1618.28344" id="Line" transform="translate(959.932452, 958.555377) rotate(-151.200000) translate(-959.932452, -958.555377) "></path>
            <path d="M1619.66051,364.533565 L300.204393,1552.5772" id="Line" transform="translate(959.932453, 958.555381) rotate(-151.200000) translate(-959.932453, -958.555381) "></path>
            <path d="M205.624693,620.591249 L1981.12804,620.591249" id="Line" transform="translate(1093.376368, 621.169562) rotate(-158.400000) translate(-1093.376368, -621.169562) "></path>
            <path d="M365.875072,298.838049 L1553.91871,1618.29418" id="Line" transform="translate(959.896889, 958.566114) rotate(-158.400000) translate(-959.896889, -958.566114) "></path>
            <path d="M1619.62495,364.544302 L300.168831,1552.58793" id="Line" transform="translate(959.896891, 958.566118) rotate(-158.400000) translate(-959.896891, -958.566118) "></path>
            <path d="M162.25123,606.537416 L1937.75458,606.537416" id="Line" transform="translate(1050.002904, 607.115729) rotate(-165.600000) translate(-1050.002904, -607.115729) "></path>
            <path d="M365.841135,298.853159 L1553.88477,1618.30929" id="Line" transform="translate(959.862952, 958.581224) rotate(-165.600000) translate(-959.862952, -958.581224) "></path>
            <path d="M1619.59102,364.559411 L300.134894,1552.60304" id="Line" transform="translate(959.862955, 958.581227) rotate(-165.600000) translate(-959.862955, -958.581227) "></path>
            <path d="M117.458367,598.030538 L1892.96172,598.030538" id="Line" transform="translate(1005.210042, 598.608852) rotate(-172.800000) translate(-1005.210042, -598.608852) "></path>
            <path d="M365.80936,298.872403 L1553.85299,1618.32853" id="Line" transform="translate(959.831177, 958.600468) rotate(-172.800000) translate(-959.831177, -958.600468) "></path>
            <path d="M1619.55924,364.578655 L300.103119,1552.62229" id="Line" transform="translate(959.831180, 958.600470) rotate(-172.800000) translate(-959.831180, -958.600470) "></path>
            <path d="M71.9525147,595.204775 L1847.45586,595.204775" id="Line" transform="translate(959.704189, 595.783088) rotate(180.000000) translate(-959.704189, -595.783088) "></path>
            <path d="M365.780247,298.895477 L1553.82388,1618.35161" id="Line" transform="translate(959.802064, 958.623542) rotate(180.000000) translate(-959.802064, -958.623542) "></path>
            <path d="M1619.53013,364.601729 L300.074007,1552.64536" id="Line" transform="translate(959.802067, 958.623545) rotate(180.000000) translate(-959.802067, -958.623545) "></path>
            <path d="M26.4513277,598.104688 L1801.95468,598.104688" id="Line" transform="translate(914.203002, 598.683001) rotate(172.800000) translate(-914.203002, -598.683001) "></path>
            <path d="M365.754255,298.922019 L1553.79789,1618.37815" id="Line" transform="translate(959.776072, 958.650084) rotate(172.800000) translate(-959.776072, -958.650084) "></path>
            <path d="M1619.50414,364.62827 L300.048016,1552.6719" id="Line" transform="translate(959.776076, 958.650086) rotate(172.800000) translate(-959.776076, -958.650086) "></path>
            <path d="M-18.3276134,606.684546 L1757.17574,606.684546" id="Line" transform="translate(869.424061, 607.262859) rotate(165.600000) translate(-869.424061, -607.262859) "></path>
            <path d="M365.731795,298.951608 L1553.77543,1618.40774" id="Line" transform="translate(959.753612, 958.679673) rotate(165.600000) translate(-959.753612, -958.679673) "></path>
            <path d="M1619.48168,364.657859 L300.025556,1552.70149" id="Line" transform="translate(959.753616, 958.679675) rotate(165.600000) translate(-959.753616, -958.679675) "></path>
            <path d="M-61.6781177,620.809039 L1713.82523,620.809039" id="Line" transform="translate(826.073557, 621.387352) rotate(158.400000) translate(-826.073557, -621.387352) "></path>
            <path d="M365.713221,298.98378 L1553.75685,1618.43991" id="Line" transform="translate(959.735038, 958.711845) rotate(158.400000) translate(-959.735038, -958.711845) "></path>
            <path d="M1619.4631,364.69003 L300.006982,1552.73366" id="Line" transform="translate(959.735042, 958.711846) rotate(158.400000) translate(-959.735042, -958.711846) "></path>
            <path d="M-102.916522,640.255414 L1672.58683,640.255414" id="Line" transform="translate(784.835153, 640.833728) rotate(151.200000) translate(-784.835153, -640.833728) "></path>
            <path d="M365.698826,299.018025 L1553.74246,1618.47416" id="Line" transform="translate(959.720642, 958.746090) rotate(151.200000) translate(-959.720642, -958.746090) "></path>
            <path d="M1619.44871,364.724275 L299.992586,1552.76791" id="Line" transform="translate(959.720647, 958.746091) rotate(151.200000) translate(-959.720647, -958.746091) "></path>
            <path d="M-141.392472,664.716992 L1634.11088,664.716992" id="Line" transform="translate(746.359203, 665.295305) rotate(144.000000) translate(-746.359203, -665.295305) "></path>
            <path d="M365.688836,299.053805 L1553.73247,1618.50994" id="Line" transform="translate(959.710653, 958.781870) rotate(144.000000) translate(-959.710653, -958.781870) "></path>
            <path d="M1619.43872,364.760054 L299.982596,1552.80369" id="Line" transform="translate(959.710657, 958.781870) rotate(144.000000) translate(-959.710657, -958.781870) "></path>
            <path d="M-176.499179,693.807998 L1599.00417,693.807998" id="Line" transform="translate(711.252496, 694.386312) rotate(136.800000) translate(-711.252496, -694.386312) "></path>
            <path d="M365.683409,299.090555 L1553.72704,1618.54669" id="Line" transform="translate(959.705226, 958.818620) rotate(136.800000) translate(-959.705226, -958.818620) "></path>
            <path d="M1619.43329,364.796804 L299.97717,1552.84044" id="Line" transform="translate(959.705230, 958.818619) rotate(136.800000) translate(-959.705230, -958.818619) "></path>
            <path d="M-207.68299,727.06965 L1567.82036,727.06965" id="Line" transform="translate(680.068685, 727.647964) rotate(129.600000) translate(-680.068685, -727.647964) "></path>
            <path d="M365.682631,299.127695 L1553.72626,1618.58383" id="Line" transform="translate(959.704448, 958.855760) rotate(129.600000) translate(-959.704448, -958.855760) "></path>
            <path d="M1619.43251,364.833943 L299.976391,1552.87757" id="Line" transform="translate(959.704452, 958.855759) rotate(129.600000) translate(-959.704452, -958.855759) "></path>
            <path d="M-234.452116,763.977392 L1541.05123,763.977392" id="Line" transform="translate(653.299559, 764.555705) rotate(122.400000) translate(-653.299559, -764.555705) "></path>
            <path d="M365.686514,299.16464 L1553.73015,1618.62077" id="Line" transform="translate(959.708331, 958.892705) rotate(122.400000) translate(-959.708331, -958.892705) "></path>
            <path d="M1619.43639,364.870888 L299.980274,1552.91452" id="Line" transform="translate(959.708335, 958.892704) rotate(122.400000) translate(-959.708335, -958.892704) "></path>
            <path d="M-256.384393,803.949166 L1519.11896,803.949166" id="Line" transform="translate(631.367282, 804.527480) rotate(115.200000) translate(-631.367282, -804.527480) "></path>
            <path d="M365.694997,299.200807 L1553.73863,1618.65694" id="Line" transform="translate(959.716813, 958.928872) rotate(115.200000) translate(-959.716813, -958.928872) "></path>
            <path d="M1619.44488,364.907054 L299.988757,1552.95069" id="Line" transform="translate(959.716817, 958.928870) rotate(115.200000) translate(-959.716817, -958.928870) "></path>
            <path d="M-273.133936,846.354595 L1502.36941,846.354595" id="Line" transform="translate(614.617739, 846.932908) rotate(108.000000) translate(-614.617739, -846.932908) "></path>
            <path d="M365.707945,299.235626 L1553.75158,1618.69176" id="Line" transform="translate(959.729762, 958.963691) rotate(108.000000) translate(-959.729762, -958.963691) "></path>
            <path d="M1619.45783,364.941872 L300.001705,1552.9855" id="Line" transform="translate(959.729766, 958.963688) rotate(108.000000) translate(-959.729766, -958.963688) "></path>
            <path d="M-284.436594,890.524918 L1491.06676,890.524918" id="Line" transform="translate(603.315081, 891.103231) rotate(100.800000) translate(-603.315081, -891.103231) "></path>
            <path d="M365.725156,299.268547 L1553.76879,1618.72468" id="Line" transform="translate(959.746973, 958.996612) rotate(100.800000) translate(-959.746973, -958.996612) "></path>
            <path d="M1619.47504,364.974793 L300.018916,1553.01842" id="Line" transform="translate(959.746976, 958.996609) rotate(100.800000) translate(-959.746976, -958.996609) "></path>
            <path d="M-290.114118,935.763543 L1485.38923,935.763543" id="Line" transform="translate(597.637557, 936.341856) rotate(93.600000) translate(-597.637557, -936.341856) "></path>
            <path d="M365.746357,299.299051 L1553.78999,1618.75518" id="Line" transform="translate(959.768174, 959.027116) rotate(93.600000) translate(-959.768174, -959.027116) "></path>
            <path d="M1619.49624,365.005297 L300.040116,1553.04893" id="Line" transform="translate(959.768177, 959.027113) rotate(93.600000) translate(-959.768177, -959.027113) "></path>
            <path d="M-290.07697,981.357031 L1485.42638,981.357031" id="Line" transform="translate(597.674705, 981.935344) rotate(86.400000) translate(-597.674705, -981.935344) "></path>
            <path d="M365.771214,299.326658 L1553.81485,1618.78279" id="Line" transform="translate(959.793031, 959.054723) rotate(86.400000) translate(-959.793031, -959.054723) "></path>
            <path d="M1619.52109,365.032903 L300.064973,1553.07653" id="Line" transform="translate(959.793033, 959.054719) rotate(86.400000) translate(-959.793033, -959.054719) "></path>
            <path d="M-284.325735,1026.58634 L1491.17761,1026.58634" id="Line" transform="translate(603.425939, 1027.164658) rotate(79.200000) translate(-603.425939, -1027.164658) "></path>
            <path d="M365.799335,299.350931 L1553.84297,1618.80706" id="Line" transform="translate(959.821152, 959.078996) rotate(79.200000) translate(-959.821152, -959.078996) "></path>
            <path d="M1619.54921,365.057177 L300.093093,1553.10081" id="Line" transform="translate(959.821154, 959.078992) rotate(79.200000) translate(-959.821154, -959.078992) "></path>
            <path d="M-272.951115,1070.73819 L1502.55223,1070.73819" id="Line" transform="translate(614.800560, 1071.316504) rotate(72.000000) translate(-614.800560, -1071.316504) "></path>
            <path d="M365.830277,299.371489 L1553.87391,1618.82762" id="Line" transform="translate(959.852094, 959.099554) rotate(72.000000) translate(-959.852094, -959.099554) "></path>
            <path d="M1619.58016,365.077734 L300.124035,1553.12137" id="Line" transform="translate(959.852095, 959.099550) rotate(72.000000) translate(-959.852095, -959.099550) "></path>
            <path d="M-256.132493,1113.11627 L1519.37086,1113.11627" id="Line" transform="translate(631.619182, 1113.694582) rotate(64.800000) translate(-631.619182, -1113.694582) "></path>
            <path d="M365.863551,299.388006 L1553.90718,1618.84414" id="Line" transform="translate(959.885368, 959.116071) rotate(64.800000) translate(-959.885368, -959.116071) "></path>
            <path d="M1619.61343,365.094251 L300.157308,1553.13788" id="Line" transform="translate(959.885369, 959.116067) rotate(64.800000) translate(-959.885369, -959.116067) "></path>
            <path d="M-234.135109,1153.05225 L1541.36824,1153.05225" id="Line" transform="translate(653.616565, 1153.630564) rotate(57.600000) translate(-653.616565, -1153.630564) "></path>
            <path d="M365.898633,299.400223 L1553.94227,1618.85635" id="Line" transform="translate(959.920450, 959.128288) rotate(57.600000) translate(-959.920450, -959.128288) "></path>
            <path d="M1619.64851,365.106468 L300.19239,1553.1501" id="Line" transform="translate(959.920450, 959.128284) rotate(57.600000) translate(-959.920450, -959.128284) "></path>
            <path d="M-207.305876,1189.91632 L1568.19747,1189.91632" id="Line" transform="translate(680.445799, 1190.494635) rotate(50.400000) translate(-680.445799, -1190.494635) "></path>
            <path d="M365.93497,299.407947 L1553.9786,1618.86408" id="Line" transform="translate(959.956786, 959.136012) rotate(50.400000) translate(-959.956786, -959.136012) "></path>
            <path d="M1619.68485,365.114192 L300.228726,1553.15782" id="Line" transform="translate(959.956786, 959.136008) rotate(50.400000) translate(-959.956786, -959.136008) "></path>
            <path d="M-176.067906,1223.12711 L1599.43544,1223.12711" id="Line" transform="translate(711.683769, 1223.705428) rotate(43.200000) translate(-711.683769, -1223.705428) "></path>
            <path d="M365.971988,299.411055 L1554.01562,1618.86719" id="Line" transform="translate(959.993805, 959.139120) rotate(43.200000) translate(-959.993805, -959.139120) "></path>
            <path d="M1619.72186,365.117301 L300.265743,1553.16093" id="Line" transform="translate(959.993804, 959.139116) rotate(43.200000) translate(-959.993804, -959.139116) "></path>
            <path d="M-140.913841,1252.16087 L1634.58951,1252.16087" id="Line" transform="translate(746.837834, 1252.739188) rotate(36.000000) translate(-746.837834, -1252.739188) "></path>
            <path d="M366.009103,299.4095 L1554.05274,1618.86563" id="Line" transform="translate(960.030920, 959.137565) rotate(36.000000) translate(-960.030920, -959.137565) "></path>
            <path d="M1619.75898,365.115745 L300.302859,1553.15938" id="Line" transform="translate(960.030919, 959.137561) rotate(36.000000) translate(-960.030919, -959.137561) "></path>
            <path d="M-102.398081,1276.55972 L1673.10527,1276.55972" id="Line" transform="translate(785.353594, 1277.138035) rotate(28.800000) translate(-785.353594, -1277.138035) "></path>
            <path d="M366.045732,299.403305 L1554.08937,1618.85943" id="Line" transform="translate(960.067548, 959.131370) rotate(28.800000) translate(-960.067548, -959.131370) "></path>
            <path d="M1619.79561,365.10955 L300.339486,1553.15318" id="Line" transform="translate(960.067547, 959.131366) rotate(28.800000) translate(-960.067547, -959.131366) "></path>
            <path d="M-61.1280424,1295.93887 L1714.37531,1295.93887" id="Line" transform="translate(826.623632, 1296.517185) rotate(21.600000) translate(-826.623632, -1296.517185) "></path>
            <path d="M366.081294,299.392568 L1554.12493,1618.8487" id="Line" transform="translate(960.103111, 959.120633) rotate(21.600000) translate(-960.103111, -959.120633) "></path>
            <path d="M1619.83117,365.098813 L300.375049,1553.14245" id="Line" transform="translate(960.103109, 959.120629) rotate(21.600000) translate(-960.103109, -959.120629) "></path>
            <path d="M-17.7545792,1309.9927 L1757.74877,1309.9927" id="Line" transform="translate(869.997096, 1310.571018) rotate(14.400000) translate(-869.997096, -1310.571018) "></path>
            <path d="M366.115231,299.377458 L1554.15886,1618.83359" id="Line" transform="translate(960.137048, 959.105523) rotate(14.400000) translate(-960.137048, -959.105523) "></path>
            <path d="M1619.86511,365.083704 L300.408985,1553.12734" id="Line" transform="translate(960.137045, 959.105520) rotate(14.400000) translate(-960.137045, -959.105520) "></path>
            <path d="M27.0382836,1318.49958 L1802.54163,1318.49958" id="Line" transform="translate(914.789958, 1319.077895) rotate(7.200000) translate(-914.789958, -1319.077895) "></path>
            <path d="M366.147007,299.358214 L1554.19064,1618.81434" id="Line" transform="translate(960.168823, 959.086279) rotate(7.200000) translate(-960.168823, -959.086279) "></path>
            <path d="M1619.89688,365.064461 L300.44076,1553.10809" id="Line" transform="translate(960.168820, 959.086277) rotate(7.200000) translate(-960.168820, -959.086277) "></path>
            <path d="M72.5441357,1321.32535 L1848.04749,1321.32535" id="Line"></path>
            <path d="M366.17612,299.33514 L1554.21975,1618.79127" id="Line"></path>
            <path d="M1619.92599,365.041387 L300.469873,1553.08502" id="Line"></path>
        </g>
    </g>
</svg>